<?xml version="1.0" standalone="no"?>
<!DOCTYPE svg PUBLIC "-//W3C//DTD SVG 20010904//EN"
 "http://www.w3.org/TR/2001/REC-SVG-20010904/DTD/svg10.dtd">
<svg version="1.0" xmlns="http://www.w3.org/2000/svg"
 width="700.000000pt" height="700.000000pt" viewBox="0 0 700.000000 700.000000"
 preserveAspectRatio="xMidYMid meet">
<metadata>
Created by potrace 1.14, written by Peter Selinger 2001-2017
</metadata>
<g transform="translate(0.000000,700.000000) scale(0.100000,-0.100000)"
fill="#000000" stroke="none">
<path d="M3264 6653 c-114 -192 -319 -537 -457 -768 -137 -231 -267 -448 -288
-483 -22 -35 -39 -65 -39 -67 0 -2 -23 -41 -51 -87 -29 -46 -61 -99 -72 -118
-11 -19 -126 -213 -256 -430 -129 -217 -240 -404 -246 -415 -19 -33 -426 -717
-451 -757 -14 -21 -19 -38 -13 -38 11 0 161 63 287 121 35 16 65 29 67 29 3 0
30 12 62 26 32 15 92 41 133 59 41 18 95 42 120 53 45 20 486 213 531 231 13
6 218 95 454 199 l430 188 2 1302 c1 716 0 1302 -2 1302 -2 0 -97 -156 -211
-347z m126 -1085 l0 -1113 -663 -289 c-364 -158 -680 -296 -702 -306 -246
-113 -426 -187 -421 -173 4 9 49 86 100 172 157 263 555 932 711 1196 81 138
158 266 170 285 13 19 82 136 155 260 73 124 143 241 155 260 13 19 50 82 84
140 33 58 64 110 69 115 5 6 11 16 13 21 7 19 321 544 325 544 2 0 4 -501 4
-1112z"/>
<path d="M3522 5702 l3 -1304 260 -114 c143 -63 274 -120 290 -128 17 -8 84
-37 150 -66 66 -28 134 -58 150 -65 41 -19 331 -146 577 -254 112 -48 312
-136 446 -195 133 -58 245 -106 247 -106 2 0 -323 543 -722 1208 -399 664
-735 1223 -745 1242 -11 19 -26 42 -34 51 -8 8 -14 19 -14 22 0 4 -23 44 -50
90 -28 45 -55 89 -60 97 -5 8 -42 69 -82 135 -40 66 -78 129 -84 140 -22 40
-306 509 -320 529 -12 18 -14 -148 -12 -1282z m151 886 c30 -51 429 -716 887
-1478 458 -762 842 -1400 853 -1418 l20 -33 -34 14 c-58 24 -841 367 -904 396
-33 15 -245 108 -472 207 l-412 179 -1 1113 c0 611 2 1112 4 1112 2 0 29 -42
59 -92z"/>
<path d="M2830 4070 c-349 -153 -651 -285 -670 -294 -19 -8 -80 -35 -135 -59
-55 -24 -116 -51 -135 -59 -56 -26 -367 -161 -467 -204 -51 -21 -91 -42 -90
-46 1 -4 101 -65 222 -136 276 -161 805 -471 1078 -631 115 -67 223 -130 240
-140 18 -10 68 -40 112 -66 182 -108 486 -285 490 -285 2 0 4 495 4 1100 0
605 -3 1100 -7 1099 -4 0 -293 -126 -642 -279z m558 -1289 l-3 -480 -98 60
c-54 32 -100 59 -102 59 -3 0 -29 16 -59 35 -30 19 -57 35 -60 35 -2 0 -41 23
-86 50 -45 28 -83 50 -85 50 -2 0 -50 28 -107 61 -56 34 -116 70 -133 79 -16
9 -120 70 -230 135 -110 64 -254 149 -320 188 -66 38 -136 79 -155 91 -19 11
-51 30 -71 41 -20 11 -109 63 -197 114 -136 80 -158 97 -144 106 9 6 150 69
312 139 162 71 315 137 340 149 71 31 621 272 770 337 74 32 200 87 280 122
l145 64 3 -478 c1 -263 1 -694 0 -957z"/>
<path d="M3520 3250 c0 -605 2 -1100 5 -1100 3 0 151 85 328 189 177 103 480
280 672 393 193 113 467 274 610 357 143 84 322 189 398 233 122 71 157 98
128 98 -7 0 -487 208 -636 275 -16 8 -145 64 -285 125 -140 61 -271 118 -290
127 -19 8 -48 21 -65 29 -132 59 -857 374 -861 374 -2 0 -4 -495 -4 -1100z
m230 907 c25 -11 99 -43 165 -72 66 -29 150 -67 188 -84 37 -17 70 -31 72 -31
2 0 87 -36 187 -81 101 -44 197 -87 213 -94 17 -7 118 -51 225 -98 107 -47
302 -133 433 -190 131 -57 237 -108 235 -113 -2 -7 -490 -297 -829 -493 -25
-14 -156 -91 -292 -171 -136 -80 -255 -149 -265 -155 -41 -23 -244 -143 -332
-195 -53 -31 -106 -62 -118 -69 l-22 -12 0 960 0 960 48 -21 c26 -11 67 -30
92 -41z"/>
<path d="M1297 3092 c10 -15 23 -34 30 -42 10 -12 177 -248 658 -930 17 -25
70 -99 117 -165 46 -66 204 -289 350 -495 737 -1044 975 -1380 1000 -1411 l27
-34 0 907 c0 695 -3 909 -12 916 -7 5 -28 19 -47 29 -40 23 -598 349 -680 398
-60 36 -553 325 -610 357 -19 11 -141 82 -270 158 -129 76 -251 147 -270 158
-19 12 -62 36 -95 55 -33 19 -95 55 -138 81 -72 43 -76 44 -60 18z m328 -276
c11 -7 36 -22 55 -33 35 -20 1249 -731 1545 -904 l160 -94 3 -750 2 -749 -137
195 c-76 107 -145 204 -153 216 -8 12 -73 104 -145 204 -71 101 -137 193 -145
205 -17 25 -58 84 -271 384 -80 113 -161 228 -181 255 -19 28 -175 248 -346
490 -171 242 -317 448 -324 458 -7 11 -32 45 -56 78 -42 59 -44 71 -7 45z"/>
<path d="M5695 3106 c-11 -7 -36 -23 -55 -33 -19 -11 -233 -136 -475 -278
-467 -274 -610 -357 -1230 -719 -214 -126 -396 -234 -403 -240 -9 -9 -12 -201
-10 -917 l3 -906 322 456 c177 251 496 701 708 1001 212 300 410 581 441 625
30 44 64 91 74 105 17 23 256 361 531 753 65 92 117 167 116 167 -1 0 -11 -6
-22 -14z m-324 -328 c-30 -41 -700 -988 -879 -1243 -19 -27 -87 -124 -151
-214 -64 -89 -129 -181 -144 -203 -59 -85 -580 -823 -583 -827 -2 -2 -4 333
-4 745 l0 749 53 29 c28 17 194 113 367 215 173 101 326 191 340 198 14 8 39
22 55 32 17 10 233 136 480 281 248 144 459 269 470 276 37 24 36 14 -4 -38z"/>
</g>
</svg>
